<svg xmlns="http://www.w3.org/2000/svg" xmlns:xlink="http://www.w3.org/1999/xlink" width="500" zoomAndPan="magnify" viewBox="0 0 375 374.999991" height="500" preserveAspectRatio="xMidYMid meet" version="1.0"><defs><g/></defs><g fill="#ffffff" fill-opacity="1"><g transform="translate(7.833472, 183.276125)"><g><path d="M 36.640625 0 L 17.734375 -28.109375 L 17.734375 0 L 7.0625 0 L 7.0625 -58.578125 L 17.734375 -58.578125 L 17.734375 -29.421875 L 36.390625 -58.578125 L 48.75 -58.578125 L 28.78125 -29.5 L 50.09375 0 Z M 36.640625 0 "/></g></g></g><g fill="#ffffff" fill-opacity="1"><g transform="translate(57.925392, 183.276125)"><g/></g></g><g fill="#ffffff" fill-opacity="1"><g transform="translate(73.894293, 183.276125)"><g><path d="M 34.375 -8.484375 L 13.453125 -8.484375 L 10.34375 0 L -1.421875 0 L 23.359375 -59.59375 L 24.203125 -59.59375 L 49.078125 0 L 37.65625 0 Z M 31.265625 -16.640625 L 25.125 -32.609375 L 23.703125 -37.3125 L 22.359375 -32.609375 L 16.46875 -16.640625 Z M 31.265625 -16.640625 "/></g></g></g><g fill="#ffffff" fill-opacity="1"><g transform="translate(121.54885, 183.276125)"><g/></g></g><g fill="#ffffff" fill-opacity="1"><g transform="translate(137.517751, 183.276125)"><g><path d="M 32.78125 0 L 17.734375 -21.1875 L 17.734375 0 L 7.0625 0 L 7.0625 -58.578125 L 23.359375 -58.578125 C 37.253906 -58.578125 44.203125 -52.359375 44.203125 -39.921875 C 44.203125 -37.148438 43.753906 -34.425781 42.859375 -31.75 C 41.960938 -29.070312 40.5 -26.695312 38.46875 -24.625 C 36.4375 -22.550781 33.835938 -21.125 30.671875 -20.34375 L 45.8125 0 Z M 22.1875 -26.46875 C 24.570312 -26.46875 26.609375 -27.035156 28.296875 -28.171875 C 29.992188 -29.304688 31.273438 -30.816406 32.140625 -32.703125 C 33.015625 -34.597656 33.453125 -36.664062 33.453125 -38.90625 C 33.453125 -42.78125 32.5625 -45.625 30.78125 -47.4375 C 29 -49.257812 26.050781 -50.171875 21.9375 -50.171875 L 17.734375 -50.171875 L 17.734375 -26.46875 Z M 22.1875 -26.46875 "/></g></g></g><g fill="#ffffff" fill-opacity="1"><g transform="translate(186.012774, 183.276125)"><g/></g></g><g fill="#ffffff" fill-opacity="1"><g transform="translate(201.981675, 183.276125)"><g><path d="M 34.375 -8.484375 L 13.453125 -8.484375 L 10.34375 0 L -1.421875 0 L 23.359375 -59.59375 L 24.203125 -59.59375 L 49.078125 0 L 37.65625 0 Z M 31.265625 -16.640625 L 25.125 -32.609375 L 23.703125 -37.3125 L 22.359375 -32.609375 L 16.46875 -16.640625 Z M 31.265625 -16.640625 "/></g></g></g><g fill="#ffffff" fill-opacity="1"><g transform="translate(249.63622, 183.276125)"><g/></g></g><g fill="#ffffff" fill-opacity="1"><g transform="translate(265.605122, 183.276125)"><g><path d="M 26.890625 1.015625 C 22.660156 1.015625 18.738281 -0.125 15.125 -2.40625 C 11.507812 -4.695312 8.601562 -8.179688 6.40625 -12.859375 C 4.207031 -17.535156 3.109375 -23.28125 3.109375 -30.09375 C 3.109375 -36.28125 4.203125 -41.59375 6.390625 -46.03125 C 8.578125 -50.476562 11.539062 -53.847656 15.28125 -56.140625 C 19.019531 -58.441406 23.195312 -59.59375 27.8125 -59.59375 C 30.644531 -59.59375 33.039062 -59.316406 35 -58.765625 C 36.96875 -58.222656 38.507812 -57.59375 39.625 -56.875 C 40.75 -56.164062 41.828125 -55.332031 42.859375 -54.375 L 38.15625 -45.546875 C 37.175781 -46.617188 36.304688 -47.441406 35.546875 -48.015625 C 34.796875 -48.585938 33.835938 -49.046875 32.671875 -49.390625 C 31.503906 -49.742188 30.023438 -49.921875 28.234375 -49.921875 C 25.429688 -49.921875 23.019531 -49.097656 21 -47.453125 C 18.988281 -45.816406 17.453125 -43.550781 16.390625 -40.65625 C 15.328125 -37.757812 14.796875 -34.429688 14.796875 -30.671875 C 14.796875 -25.960938 15.347656 -21.941406 16.453125 -18.609375 C 17.554688 -15.273438 19.050781 -12.769531 20.9375 -11.09375 C 22.832031 -9.414062 24.957031 -8.578125 27.3125 -8.578125 C 29.8125 -8.578125 32.019531 -8.925781 33.9375 -9.625 C 35.851562 -10.320312 37.316406 -11.203125 38.328125 -12.265625 L 42.953125 -3.953125 C 41.242188 -2.546875 39.175781 -1.363281 36.75 -0.40625 C 34.320312 0.539062 31.035156 1.015625 26.890625 1.015625 Z M 26.890625 1.015625 "/></g></g></g><g fill="#ffffff" fill-opacity="1"><g transform="translate(309.897828, 183.276125)"><g/></g></g><g fill="#ffffff" fill-opacity="1"><g transform="translate(325.86673, 183.276125)"><g><path d="M 34.375 -8.484375 L 13.453125 -8.484375 L 10.34375 0 L -1.421875 0 L 23.359375 -59.59375 L 24.203125 -59.59375 L 49.078125 0 L 37.65625 0 Z M 31.265625 -16.640625 L 25.125 -32.609375 L 23.703125 -37.3125 L 22.359375 -32.609375 L 16.46875 -16.640625 Z M 31.265625 -16.640625 "/></g></g></g><g fill="#ffffff" fill-opacity="1"><g transform="translate(30.966283, 211.026123)"><g><path d="M 5.796875 0.25 C 5.085938 0.25 4.421875 0.164062 3.796875 0 C 3.171875 -0.164062 2.617188 -0.378906 2.140625 -0.640625 C 1.671875 -0.910156 1.300781 -1.191406 1.03125 -1.484375 L 2.1875 -3.890625 C 2.363281 -3.660156 2.628906 -3.414062 2.984375 -3.15625 C 3.347656 -2.894531 3.757812 -2.671875 4.21875 -2.484375 C 4.675781 -2.304688 5.132812 -2.21875 5.59375 -2.21875 C 6.195312 -2.21875 6.703125 -2.378906 7.109375 -2.703125 C 7.515625 -3.035156 7.71875 -3.503906 7.71875 -4.109375 C 7.71875 -4.492188 7.625 -4.828125 7.4375 -5.109375 C 7.25 -5.398438 7 -5.65625 6.6875 -5.875 C 6.382812 -6.101562 5.914062 -6.414062 5.28125 -6.8125 C 4.40625 -7.34375 3.71875 -7.796875 3.21875 -8.171875 C 2.726562 -8.546875 2.300781 -9.039062 1.9375 -9.65625 C 1.570312 -10.269531 1.390625 -11.007812 1.390625 -11.875 C 1.390625 -12.71875 1.570312 -13.460938 1.9375 -14.109375 C 2.300781 -14.765625 2.835938 -15.273438 3.546875 -15.640625 C 4.253906 -16.015625 5.101562 -16.203125 6.09375 -16.203125 C 7.71875 -16.203125 9.078125 -15.707031 10.171875 -14.71875 L 8.890625 -12.375 C 8.753906 -12.5625 8.554688 -12.765625 8.296875 -12.984375 C 8.046875 -13.203125 7.734375 -13.390625 7.359375 -13.546875 C 6.992188 -13.703125 6.613281 -13.78125 6.21875 -13.78125 C 5.625 -13.78125 5.164062 -13.609375 4.84375 -13.265625 C 4.519531 -12.929688 4.359375 -12.507812 4.359375 -12 C 4.359375 -11.601562 4.457031 -11.253906 4.65625 -10.953125 C 4.851562 -10.660156 5.109375 -10.394531 5.421875 -10.15625 C 5.734375 -9.914062 6.15625 -9.632812 6.6875 -9.3125 C 7.65625 -8.75 8.394531 -8.269531 8.90625 -7.875 C 9.414062 -7.488281 9.84375 -6.992188 10.1875 -6.390625 C 10.539062 -5.796875 10.71875 -5.066406 10.71875 -4.203125 C 10.71875 -3.285156 10.519531 -2.488281 10.125 -1.8125 C 9.726562 -1.144531 9.160156 -0.632812 8.421875 -0.28125 C 7.679688 0.0703125 6.804688 0.25 5.796875 0.25 Z M 5.796875 0.25 "/></g></g></g><g fill="#ffffff" fill-opacity="1"><g transform="translate(42.866078, 211.026123)"><g/></g></g><g fill="#ffffff" fill-opacity="1"><g transform="translate(47.594136, 211.026123)"><g><path d="M 13.09375 -15.921875 L 13.09375 0 L 10.125 0 L 10.125 -6.765625 L 4.859375 -6.765625 L 4.859375 0 L 1.921875 0 L 1.921875 -15.921875 L 4.859375 -15.921875 L 4.859375 -9.28125 L 10.125 -9.28125 L 10.125 -15.921875 Z M 13.09375 -15.921875 "/></g></g></g><g fill="#ffffff" fill-opacity="1"><g transform="translate(62.988429, 211.026123)"><g/></g></g><g fill="#ffffff" fill-opacity="1"><g transform="translate(67.716487, 211.026123)"><g><path d="M 1.84375 -15.921875 L 4.78125 -15.921875 L 4.78125 0 L 1.84375 0 Z M 1.84375 -15.921875 "/></g></g></g><g fill="#ffffff" fill-opacity="1"><g transform="translate(74.728545, 211.026123)"><g/></g></g><g fill="#ffffff" fill-opacity="1"><g transform="translate(79.456602, 211.026123)"><g><path d="M 6.1875 -15.921875 C 7.988281 -15.921875 9.410156 -15.492188 10.453125 -14.640625 C 11.503906 -13.796875 12.03125 -12.363281 12.03125 -10.34375 C 12.03125 -9.25 11.828125 -8.242188 11.421875 -7.328125 C 11.015625 -6.410156 10.378906 -5.671875 9.515625 -5.109375 C 8.648438 -4.546875 7.570312 -4.265625 6.28125 -4.265625 L 4.859375 -4.265625 L 4.859375 0 L 1.921875 0 L 1.921875 -15.921875 Z M 6.078125 -6.671875 C 7.078125 -6.671875 7.828125 -6.96875 8.328125 -7.5625 C 8.835938 -8.164062 9.09375 -9.039062 9.09375 -10.1875 C 9.09375 -10.988281 8.992188 -11.640625 8.796875 -12.140625 C 8.597656 -12.640625 8.269531 -13.007812 7.8125 -13.25 C 7.363281 -13.488281 6.765625 -13.609375 6.015625 -13.609375 L 4.859375 -13.609375 L 4.859375 -6.671875 Z M 6.078125 -6.671875 "/></g></g></g><g fill="#ffffff" fill-opacity="1"><g transform="translate(92.338506, 211.026123)"><g/></g></g><g fill="#ffffff" fill-opacity="1"><g transform="translate(97.066563, 211.026123)"><g><path d="M 18.53125 -15.921875 L 13.25 0.03125 L 12.890625 0.03125 L 9.15625 -9.109375 L 5.484375 0.015625 L 5.09375 0.015625 L -0.234375 -15.921875 L 2.921875 -15.921875 L 5.703125 -6.6875 L 9.015625 -15.921875 L 9.40625 -15.921875 L 12.78125 -6.71875 L 15.390625 -15.921875 Z M 18.53125 -15.921875 "/></g></g></g><g fill="#ffffff" fill-opacity="1"><g transform="translate(115.749808, 211.026123)"><g/></g></g><g fill="#ffffff" fill-opacity="1"><g transform="translate(120.477866, 211.026123)"><g><path d="M 1.84375 -15.921875 L 4.78125 -15.921875 L 4.78125 0 L 1.84375 0 Z M 1.84375 -15.921875 "/></g></g></g><g fill="#ffffff" fill-opacity="1"><g transform="translate(127.489924, 211.026123)"><g/></g></g><g fill="#ffffff" fill-opacity="1"><g transform="translate(132.217981, 211.026123)"><g><path d="M 13.1875 -15.921875 L 13.1875 0.3125 L 12.953125 0.3125 L 5.328125 -8.390625 L 4.609375 -9.296875 L 4.734375 -7.078125 L 4.734375 0 L 1.921875 0 L 1.921875 -16.203125 L 2.171875 -16.203125 L 9.6875 -7.421875 L 10.484375 -6.390625 L 10.375 -8.5625 L 10.375 -15.921875 Z M 13.1875 -15.921875 "/></g></g></g><g fill="#ffffff" fill-opacity="1"><g transform="translate(147.703633, 211.026123)"><g/></g></g><g fill="#ffffff" fill-opacity="1"><g transform="translate(152.431691, 211.026123)"><g><path d="M 5.96875 -15.921875 C 8.289062 -15.921875 10.070312 -15.265625 11.3125 -13.953125 C 12.5625 -12.648438 13.1875 -10.71875 13.1875 -8.15625 C 13.1875 -6.488281 12.90625 -5.039062 12.34375 -3.8125 C 11.78125 -2.59375 10.957031 -1.648438 9.875 -0.984375 C 8.789062 -0.328125 7.476562 0 5.9375 0 L 1.84375 0 L 1.84375 -15.921875 Z M 5.875 -2.515625 C 6.925781 -2.515625 7.773438 -2.769531 8.421875 -3.28125 C 9.066406 -3.800781 9.523438 -4.476562 9.796875 -5.3125 C 10.078125 -6.144531 10.21875 -7.070312 10.21875 -8.09375 C 10.21875 -9.707031 9.875 -11.035156 9.1875 -12.078125 C 8.507812 -13.117188 7.40625 -13.640625 5.875 -13.640625 L 4.796875 -13.640625 L 4.796875 -2.515625 Z M 5.875 -2.515625 "/></g></g></g><g fill="#ffffff" fill-opacity="1"><g transform="translate(166.68399, 211.026123)"><g/></g></g><g fill="#ffffff" fill-opacity="1"><g transform="translate(171.412047, 211.026123)"><g><path d="M 7.53125 0.28125 C 6.113281 0.28125 4.90625 -0.0546875 3.90625 -0.734375 C 2.914062 -1.410156 2.164062 -2.363281 1.65625 -3.59375 C 1.144531 -4.832031 0.890625 -6.289062 0.890625 -7.96875 C 0.890625 -9.632812 1.140625 -11.082031 1.640625 -12.3125 C 2.148438 -13.550781 2.898438 -14.507812 3.890625 -15.1875 C 4.878906 -15.863281 6.070312 -16.203125 7.46875 -16.203125 C 8.925781 -16.203125 10.148438 -15.859375 11.140625 -15.171875 C 12.140625 -14.492188 12.890625 -13.535156 13.390625 -12.296875 C 13.890625 -11.066406 14.140625 -9.625 14.140625 -7.96875 C 14.140625 -6.289062 13.878906 -4.832031 13.359375 -3.59375 C 12.847656 -2.363281 12.097656 -1.410156 11.109375 -0.734375 C 10.117188 -0.0546875 8.925781 0.28125 7.53125 0.28125 Z M 7.53125 -2.171875 C 8.21875 -2.171875 8.828125 -2.382812 9.359375 -2.8125 C 9.898438 -3.25 10.328125 -3.910156 10.640625 -4.796875 C 10.953125 -5.679688 11.109375 -6.765625 11.109375 -8.046875 C 11.109375 -9.921875 10.785156 -11.351562 10.140625 -12.34375 C 9.503906 -13.332031 8.613281 -13.828125 7.46875 -13.828125 C 6.351562 -13.828125 5.488281 -13.332031 4.875 -12.34375 C 4.257812 -11.351562 3.953125 -9.910156 3.953125 -8.015625 C 3.953125 -6.722656 4.097656 -5.640625 4.390625 -4.765625 C 4.679688 -3.890625 5.09375 -3.238281 5.625 -2.8125 C 6.164062 -2.382812 6.800781 -2.171875 7.53125 -2.171875 Z M 7.53125 -2.171875 "/></g></g></g><g fill="#ffffff" fill-opacity="1"><g transform="translate(186.829184, 211.026123)"><g/></g></g><g fill="#ffffff" fill-opacity="1"><g transform="translate(191.557241, 211.026123)"><g><path d="M 18.53125 -15.921875 L 13.25 0.03125 L 12.890625 0.03125 L 9.15625 -9.109375 L 5.484375 0.015625 L 5.09375 0.015625 L -0.234375 -15.921875 L 2.921875 -15.921875 L 5.703125 -6.6875 L 9.015625 -15.921875 L 9.40625 -15.921875 L 12.78125 -6.71875 L 15.390625 -15.921875 Z M 18.53125 -15.921875 "/></g></g></g><g fill="#ffffff" fill-opacity="1"><g transform="translate(210.240486, 211.026123)"><g/></g></g><g fill="#ffffff" fill-opacity="1"><g transform="translate(214.968544, 211.026123)"><g><path d="M 5.796875 0.25 C 5.085938 0.25 4.421875 0.164062 3.796875 0 C 3.171875 -0.164062 2.617188 -0.378906 2.140625 -0.640625 C 1.671875 -0.910156 1.300781 -1.191406 1.03125 -1.484375 L 2.1875 -3.890625 C 2.363281 -3.660156 2.628906 -3.414062 2.984375 -3.15625 C 3.347656 -2.894531 3.757812 -2.671875 4.21875 -2.484375 C 4.675781 -2.304688 5.132812 -2.21875 5.59375 -2.21875 C 6.195312 -2.21875 6.703125 -2.378906 7.109375 -2.703125 C 7.515625 -3.035156 7.71875 -3.503906 7.71875 -4.109375 C 7.71875 -4.492188 7.625 -4.828125 7.4375 -5.109375 C 7.25 -5.398438 7 -5.65625 6.6875 -5.875 C 6.382812 -6.101562 5.914062 -6.414062 5.28125 -6.8125 C 4.40625 -7.34375 3.71875 -7.796875 3.21875 -8.171875 C 2.726562 -8.546875 2.300781 -9.039062 1.9375 -9.65625 C 1.570312 -10.269531 1.390625 -11.007812 1.390625 -11.875 C 1.390625 -12.71875 1.570312 -13.460938 1.9375 -14.109375 C 2.300781 -14.765625 2.835938 -15.273438 3.546875 -15.640625 C 4.253906 -16.015625 5.101562 -16.203125 6.09375 -16.203125 C 7.71875 -16.203125 9.078125 -15.707031 10.171875 -14.71875 L 8.890625 -12.375 C 8.753906 -12.5625 8.554688 -12.765625 8.296875 -12.984375 C 8.046875 -13.203125 7.734375 -13.390625 7.359375 -13.546875 C 6.992188 -13.703125 6.613281 -13.78125 6.21875 -13.78125 C 5.625 -13.78125 5.164062 -13.609375 4.84375 -13.265625 C 4.519531 -12.929688 4.359375 -12.507812 4.359375 -12 C 4.359375 -11.601562 4.457031 -11.253906 4.65625 -10.953125 C 4.851562 -10.660156 5.109375 -10.394531 5.421875 -10.15625 C 5.734375 -9.914062 6.15625 -9.632812 6.6875 -9.3125 C 7.65625 -8.75 8.394531 -8.269531 8.90625 -7.875 C 9.414062 -7.488281 9.84375 -6.992188 10.1875 -6.390625 C 10.539062 -5.796875 10.71875 -5.066406 10.71875 -4.203125 C 10.71875 -3.285156 10.519531 -2.488281 10.125 -1.8125 C 9.726562 -1.144531 9.160156 -0.632812 8.421875 -0.28125 C 7.679688 0.0703125 6.804688 0.25 5.796875 0.25 Z M 5.796875 0.25 "/></g></g></g><g fill="#ffffff" fill-opacity="1"><g transform="translate(226.868338, 211.026123)"><g/></g></g><g fill="#ffffff" fill-opacity="1"><g transform="translate(231.596396, 211.026123)"><g><path d="M 13.25 -1.1875 L 11.28125 0.484375 L 9.9375 -1.03125 C 9.375 -0.613281 8.789062 -0.296875 8.1875 -0.078125 C 7.582031 0.128906 6.878906 0.234375 6.078125 0.234375 C 4.972656 0.234375 4.046875 0.046875 3.296875 -0.328125 C 2.554688 -0.710938 2.003906 -1.207031 1.640625 -1.8125 C 1.273438 -2.414062 1.09375 -3.046875 1.09375 -3.703125 C 1.09375 -4.359375 1.203125 -4.929688 1.421875 -5.421875 C 1.648438 -5.921875 1.960938 -6.351562 2.359375 -6.71875 C 2.753906 -7.09375 3.265625 -7.472656 3.890625 -7.859375 C 3.253906 -8.546875 2.753906 -9.210938 2.390625 -9.859375 C 2.023438 -10.515625 1.84375 -11.25 1.84375 -12.0625 C 1.84375 -12.9375 2.054688 -13.695312 2.484375 -14.34375 C 2.910156 -14.988281 3.460938 -15.476562 4.140625 -15.8125 C 4.816406 -16.15625 5.53125 -16.328125 6.28125 -16.328125 C 7.0625 -16.328125 7.765625 -16.1875 8.390625 -15.90625 C 9.023438 -15.625 9.53125 -15.195312 9.90625 -14.625 C 10.28125 -14.0625 10.46875 -13.367188 10.46875 -12.546875 C 10.46875 -11.671875 10.203125 -10.796875 9.671875 -9.921875 C 9.148438 -9.054688 8.414062 -8.304688 7.46875 -7.671875 C 8.65625 -6.285156 9.578125 -5.234375 10.234375 -4.515625 C 10.515625 -4.921875 10.765625 -5.394531 10.984375 -5.9375 C 11.203125 -6.476562 11.363281 -7.007812 11.46875 -7.53125 L 13.703125 -6.1875 C 13.585938 -5.601562 13.390625 -5.066406 13.109375 -4.578125 C 12.828125 -4.085938 12.414062 -3.46875 11.875 -2.71875 Z M 6.1875 -14.34375 C 5.832031 -14.34375 5.519531 -14.242188 5.25 -14.046875 C 4.976562 -13.847656 4.769531 -13.585938 4.625 -13.265625 C 4.476562 -12.953125 4.40625 -12.613281 4.40625 -12.25 C 4.40625 -11.375 4.976562 -10.3125 6.125 -9.0625 C 6.664062 -9.539062 7.082031 -10.0625 7.375 -10.625 C 7.664062 -11.195312 7.8125 -11.796875 7.8125 -12.421875 C 7.8125 -12.992188 7.675781 -13.457031 7.40625 -13.8125 C 7.132812 -14.164062 6.726562 -14.34375 6.1875 -14.34375 Z M 5.984375 -2.015625 C 6.847656 -2.015625 7.648438 -2.269531 8.390625 -2.78125 L 5.15625 -6.46875 C 4.6875 -6.09375 4.351562 -5.722656 4.15625 -5.359375 C 3.957031 -4.992188 3.859375 -4.578125 3.859375 -4.109375 C 3.859375 -3.816406 3.921875 -3.507812 4.046875 -3.1875 C 4.179688 -2.863281 4.40625 -2.585938 4.71875 -2.359375 C 5.039062 -2.128906 5.460938 -2.015625 5.984375 -2.015625 Z M 5.984375 -2.015625 "/></g></g></g><g fill="#ffffff" fill-opacity="1"><g transform="translate(246.031423, 211.026123)"><g/></g></g><g fill="#ffffff" fill-opacity="1"><g transform="translate(250.75948, 211.026123)"><g><path d="M 18.53125 -15.921875 L 13.25 0.03125 L 12.890625 0.03125 L 9.15625 -9.109375 L 5.484375 0.015625 L 5.09375 0.015625 L -0.234375 -15.921875 L 2.921875 -15.921875 L 5.703125 -6.6875 L 9.015625 -15.921875 L 9.40625 -15.921875 L 12.78125 -6.71875 L 15.390625 -15.921875 Z M 18.53125 -15.921875 "/></g></g></g><g fill="#ffffff" fill-opacity="1"><g transform="translate(269.442714, 211.026123)"><g/></g></g><g fill="#ffffff" fill-opacity="1"><g transform="translate(274.170772, 211.026123)"><g><path d="M 1.84375 -15.921875 L 4.78125 -15.921875 L 4.78125 0 L 1.84375 0 Z M 1.84375 -15.921875 "/></g></g></g><g fill="#ffffff" fill-opacity="1"><g transform="translate(281.182818, 211.026123)"><g/></g></g><g fill="#ffffff" fill-opacity="1"><g transform="translate(285.910876, 211.026123)"><g><path d="M 6.1875 -15.921875 C 7.988281 -15.921875 9.410156 -15.492188 10.453125 -14.640625 C 11.503906 -13.796875 12.03125 -12.363281 12.03125 -10.34375 C 12.03125 -9.25 11.828125 -8.242188 11.421875 -7.328125 C 11.015625 -6.410156 10.378906 -5.671875 9.515625 -5.109375 C 8.648438 -4.546875 7.570312 -4.265625 6.28125 -4.265625 L 4.859375 -4.265625 L 4.859375 0 L 1.921875 0 L 1.921875 -15.921875 Z M 6.078125 -6.671875 C 7.078125 -6.671875 7.828125 -6.96875 8.328125 -7.5625 C 8.835938 -8.164062 9.09375 -9.039062 9.09375 -10.1875 C 9.09375 -10.988281 8.992188 -11.640625 8.796875 -12.140625 C 8.597656 -12.640625 8.269531 -13.007812 7.8125 -13.25 C 7.363281 -13.488281 6.765625 -13.609375 6.015625 -13.609375 L 4.859375 -13.609375 L 4.859375 -6.671875 Z M 6.078125 -6.671875 "/></g></g></g><g fill="#ffffff" fill-opacity="1"><g transform="translate(298.792802, 211.026123)"><g/></g></g><g fill="#ffffff" fill-opacity="1"><g transform="translate(303.52086, 211.026123)"><g><path d="M 10.625 -2.578125 L 10.625 0 L 1.84375 0 L 1.84375 -15.921875 L 10.171875 -15.921875 L 10.171875 -13.4375 L 4.703125 -13.4375 L 4.703125 -9.703125 L 9.046875 -9.703125 L 9.046875 -7.28125 L 4.703125 -7.28125 L 4.703125 -2.578125 Z M 10.625 -2.578125 "/></g></g></g><g fill="#ffffff" fill-opacity="1"><g transform="translate(315.466316, 211.026123)"><g/></g></g><g fill="#ffffff" fill-opacity="1"><g transform="translate(320.194374, 211.026123)"><g><path d="M 8.90625 0 L 4.8125 -5.75 L 4.8125 0 L 1.921875 0 L 1.921875 -15.921875 L 6.34375 -15.921875 C 10.125 -15.921875 12.015625 -14.226562 12.015625 -10.84375 C 12.015625 -10.09375 11.890625 -9.351562 11.640625 -8.625 C 11.398438 -7.894531 11.003906 -7.25 10.453125 -6.6875 C 9.898438 -6.125 9.195312 -5.738281 8.34375 -5.53125 L 12.453125 0 Z M 6.03125 -7.203125 C 6.675781 -7.203125 7.226562 -7.351562 7.6875 -7.65625 C 8.15625 -7.96875 8.503906 -8.378906 8.734375 -8.890625 C 8.972656 -9.398438 9.09375 -9.960938 9.09375 -10.578125 C 9.09375 -11.628906 8.847656 -12.398438 8.359375 -12.890625 C 7.878906 -13.390625 7.082031 -13.640625 5.96875 -13.640625 L 4.8125 -13.640625 L 4.8125 -7.203125 Z M 6.03125 -7.203125 "/></g></g></g><g fill="#ffffff" fill-opacity="1"><g transform="translate(333.761481, 211.026123)"><g/></g></g><g fill="#ffffff" fill-opacity="1"><g transform="translate(338.489539, 211.026123)"><g><path d="M 5.796875 0.25 C 5.085938 0.25 4.421875 0.164062 3.796875 0 C 3.171875 -0.164062 2.617188 -0.378906 2.140625 -0.640625 C 1.671875 -0.910156 1.300781 -1.191406 1.03125 -1.484375 L 2.1875 -3.890625 C 2.363281 -3.660156 2.628906 -3.414062 2.984375 -3.15625 C 3.347656 -2.894531 3.757812 -2.671875 4.21875 -2.484375 C 4.675781 -2.304688 5.132812 -2.21875 5.59375 -2.21875 C 6.195312 -2.21875 6.703125 -2.378906 7.109375 -2.703125 C 7.515625 -3.035156 7.71875 -3.503906 7.71875 -4.109375 C 7.71875 -4.492188 7.625 -4.828125 7.4375 -5.109375 C 7.25 -5.398438 7 -5.65625 6.6875 -5.875 C 6.382812 -6.101562 5.914062 -6.414062 5.28125 -6.8125 C 4.40625 -7.34375 3.71875 -7.796875 3.21875 -8.171875 C 2.726562 -8.546875 2.300781 -9.039062 1.9375 -9.65625 C 1.570312 -10.269531 1.390625 -11.007812 1.390625 -11.875 C 1.390625 -12.71875 1.570312 -13.460938 1.9375 -14.109375 C 2.300781 -14.765625 2.835938 -15.273438 3.546875 -15.640625 C 4.253906 -16.015625 5.101562 -16.203125 6.09375 -16.203125 C 7.71875 -16.203125 9.078125 -15.707031 10.171875 -14.71875 L 8.890625 -12.375 C 8.753906 -12.5625 8.554688 -12.765625 8.296875 -12.984375 C 8.046875 -13.203125 7.734375 -13.390625 7.359375 -13.546875 C 6.992188 -13.703125 6.613281 -13.78125 6.21875 -13.78125 C 5.625 -13.78125 5.164062 -13.609375 4.84375 -13.265625 C 4.519531 -12.929688 4.359375 -12.507812 4.359375 -12 C 4.359375 -11.601562 4.457031 -11.253906 4.65625 -10.953125 C 4.851562 -10.660156 5.109375 -10.394531 5.421875 -10.15625 C 5.734375 -9.914062 6.15625 -9.632812 6.6875 -9.3125 C 7.65625 -8.75 8.394531 -8.269531 8.90625 -7.875 C 9.414062 -7.488281 9.84375 -6.992188 10.1875 -6.390625 C 10.539062 -5.796875 10.71875 -5.066406 10.71875 -4.203125 C 10.71875 -3.285156 10.519531 -2.488281 10.125 -1.8125 C 9.726562 -1.144531 9.160156 -0.632812 8.421875 -0.28125 C 7.679688 0.0703125 6.804688 0.25 5.796875 0.25 Z M 5.796875 0.25 "/></g></g></g></svg>